<svg width="73" height="73" viewBox="0 0 73 73" fill="none" xmlns="http://www.w3.org/2000/svg">
<g clip-path="url(#clip0_7797_3090)" filter="url(#filter0_i_7797_3090)">
<path fill-rule="evenodd" clip-rule="evenodd" d="M36.9404 72.789C46.4882 72.789 55.645 68.9962 62.3963 62.2448C69.1476 55.4935 72.9404 46.3368 72.9404 36.789C72.9404 27.2412 69.1476 18.0845 62.3963 11.3332C55.645 4.58185 46.4882 0.789001 36.9404 0.789001C27.3926 0.789001 18.2359 4.58185 11.4846 11.3332C4.73328 18.0845 0.94043 27.2412 0.94043 36.789C0.94043 46.3368 4.73328 55.4935 11.4846 62.2448C18.2359 68.9962 27.3926 72.789 36.9404 72.789Z" fill="#071214"/>
<path fill-rule="evenodd" clip-rule="evenodd" d="M36.9404 72.789C46.4882 72.789 55.645 68.9962 62.3963 62.2448C69.1476 55.4935 72.9404 46.3368 72.9404 36.789C72.9404 27.2412 69.1476 18.0845 62.3963 11.3332C55.645 4.58185 46.4882 0.789001 36.9404 0.789001C27.3926 0.789001 18.2359 4.58185 11.4846 11.3332C4.73328 18.0845 0.94043 27.2412 0.94043 36.789C0.94043 46.3368 4.73328 55.4935 11.4846 62.2448C18.2359 68.9962 27.3926 72.789 36.9404 72.789Z" fill="url(#paint0_linear_7797_3090)" fill-opacity="0.25"/>
<path fill-rule="evenodd" clip-rule="evenodd" d="M42.1954 11.0397L42.4559 11.2981L39.9638 8.80807L42.1954 11.0397ZM34.5761 8.14227L31.6802 11.0382L34.5776 8.14429L34.5761 8.14227Z" fill="white"/>
<path fill-rule="evenodd" clip-rule="evenodd" d="M54.6731 45.6662C54.6731 44.4364 55.1616 43.257 56.0312 42.3874L62.8501 35.5686L60.0538 32.7724C59.1842 31.9028 58.0048 31.4142 56.775 31.4142H52.2862L51.1934 32.5059V14.4495L48.1087 11.3648H44.0991L42.4559 13.0065V11.2981L42.1954 11.0397L39.9638 8.80807L39.3 8.14429L36.9378 8.14328L34.5776 8.14429L31.6802 11.0382L31.4147 11.3036V12.9921L29.7869 11.3642L25.7686 11.36L22.6801 14.4495V32.5231L21.5739 31.4171L17.0985 31.4157C15.8677 31.4153 14.6872 31.9042 13.8172 32.7748L11.0303 35.5634L17.8446 42.3874C18.7128 43.2568 19.2005 44.4352 19.2005 45.6638V52.4315L28.5727 61.8037C29.4423 62.6733 30.6217 63.1619 31.8515 63.1619H42.022C43.2518 63.1619 44.4313 62.6733 45.3008 61.8037L54.6731 52.4315V45.6662ZM59.5973 35.5654L53.7335 41.4294C52.8636 42.2993 52.3751 43.4793 52.3755 44.7096L52.3776 51.4729L44.3348 59.5163C43.4652 60.386 42.2857 60.8746 41.0559 60.8746H32.8416C31.6119 60.8746 30.4326 60.3862 29.563 59.5167L21.502 51.4565V44.7045C21.502 43.4754 21.0141 42.2966 20.1454 41.4272L14.2886 35.565L14.7882 35.0658C15.6582 34.1965 16.8379 33.7084 18.0677 33.709L19.5815 33.7096C20.8112 33.7102 21.9903 34.1992 22.8595 35.069L24.9825 37.1936V16.6389C24.9825 15.8495 25.2961 15.0924 25.8544 14.5342C26.4126 13.976 27.1697 13.6624 27.9591 13.6624H29.6696L31.414 15.4073V33.7624L33.7195 31.4584V13.5385C33.7195 12.7188 34.0451 11.9327 34.6245 11.3529C35.2044 10.7728 35.991 10.4469 36.8112 10.4469H37.0645C37.8847 10.4469 38.6713 10.7728 39.2511 11.3528C39.8308 11.9326 40.1564 12.7189 40.1564 13.5388V31.4363L42.4567 33.7336V15.417L44.2034 13.6706H45.9346C46.7185 13.6706 47.4702 13.9821 48.0243 14.5365C48.5781 15.0905 48.8892 15.8418 48.8892 16.6252V37.2042L51.1053 35.034C51.9719 34.1853 53.1366 33.71 54.3496 33.71H55.8223C57.054 33.71 58.235 34.2 59.1049 35.0719L59.5973 35.5654Z" fill="white"/>
<path fill-rule="evenodd" clip-rule="evenodd" d="M23.5179 47.4899L28.9135 52.9015C33.3427 57.3437 40.5376 57.3437 44.9668 52.9015L50.3624 47.4899L46.4123 43.5397C41.181 38.3084 32.6994 38.3084 27.4681 43.5397L23.5179 47.4899ZM45.6836 46.0522L47.1161 47.4847L43.5074 51.104C39.8836 54.7385 33.9968 54.7385 30.3729 51.104L26.7642 47.4847L28.1967 46.0522C29.414 44.8349 30.8219 43.9245 32.3244 43.3209C31.8268 44.1382 31.5402 45.0982 31.5402 46.125C31.5402 49.1074 33.9578 51.525 36.9402 51.525C39.9225 51.525 42.3401 49.1074 42.3401 46.125C42.3401 45.0982 42.0535 44.1382 41.5559 43.3209C43.0584 43.9245 44.4663 44.8349 45.6836 46.0522Z" fill="white"/>
</g>
<defs>
<filter id="filter0_i_7797_3090" x="0.94043" y="0.789001" width="72" height="76" filterUnits="userSpaceOnUse" color-interpolation-filters="sRGB">
<feFlood flood-opacity="0" result="BackgroundImageFix"/>
<feBlend mode="normal" in="SourceGraphic" in2="BackgroundImageFix" result="shape"/>
<feColorMatrix in="SourceAlpha" type="matrix" values="0 0 0 0 0 0 0 0 0 0 0 0 0 0 0 0 0 0 127 0" result="hardAlpha"/>
<feOffset dy="4"/>
<feGaussianBlur stdDeviation="2"/>
<feComposite in2="hardAlpha" operator="arithmetic" k2="-1" k3="1"/>
<feColorMatrix type="matrix" values="0 0 0 0 1 0 0 0 0 1 0 0 0 0 1 0 0 0 0.25 0"/>
<feBlend mode="normal" in2="shape" result="effect1_innerShadow_7797_3090"/>
</filter>
<linearGradient id="paint0_linear_7797_3090" x1="0.94043" y1="0.789001" x2="36.9404" y2="72.789" gradientUnits="userSpaceOnUse">
<stop stop-color="#D2D2D2"/>
<stop offset="1" stop-color="white" stop-opacity="0"/>
</linearGradient>
<clipPath id="clip0_7797_3090">
<rect width="72" height="72" fill="white" transform="translate(0.94043 0.789001)"/>
</clipPath>
</defs>
</svg>
