<svg width="24" height="28" viewBox="0 0 24 28" fill="none" xmlns="http://www.w3.org/2000/svg">
<path fill-rule="evenodd" clip-rule="evenodd" d="M7.16332 11.2924C12.5465 9.44989 13.4628 4.65039 12.7755 0.237573C12.7755 0.0783478 12.913 -0.0353845 13.0504 0.0101084C18.2045 2.51222 24 7.97137 24 16.1601C24 22.4381 19.0979 27.9883 11.9738 27.9883C9.43172 28.103 6.92353 27.3739 4.84511 25.916C2.76669 24.458 1.23642 22.3543 0.495809 19.9368C-0.244799 17.5193 -0.153558 14.9258 0.755132 12.5655C1.66382 10.2052 3.33821 8.21266 5.51402 6.90229C5.65146 6.8113 5.83471 6.90229 5.83471 7.06151C5.90344 7.90313 6.13251 10.0186 7.07169 11.2924H7.16332Z" fill="#FE4C4C"/>
</svg>
