<?xml version="1.0" encoding="UTF-8"?>
<!-- Generator: Adobe Illustrator 25.4.1, SVG Export Plug-In . SVG Version: 6.00 Build 0)  -->
<svg xmlns="http://www.w3.org/2000/svg" xmlns:xlink="http://www.w3.org/1999/xlink" version="1.1" id="Layer_1" x="0px" y="0px" viewBox="0 0 70 70" style="enable-background:new 0 0 70 70;" xml:space="preserve">
<style type="text/css">
	.st0{fill:#FFFFFF;}
	.st1{fill:#FCB724;}
	.st2{fill:#552C81;}
	.st3{fill:#552583;}
</style>
<g>
	<g>
		<path class="st0" d="M15.09,23.32c0,0,5.89-9.63,17.95-9.63c12.06,0,17.67,9.35,17.67,9.35h16.36l-0.65,4.02    c0,0-0.47,1.59-1.22,1.78h1.12c0,0,0.37,1.4-1.87,6.26h4.77c0,0,0.19,8.51-10.1,12.53c0,0-5.33,1.68-8.04-1.22    c0,0-5.42,10.1-18.05,10.1c-12.62,0-18.33-10.38-18.33-10.38H0.04l2.34-4.21H0.78l1.87-3.46h3.18l0.56-1.31H4.9l3.65-6.73h2.06    l0.84-2.06H9.67l2.71-5.05H15.09z"></path>
	</g>
	<g>
		<path class="st1" d="M33.22,54.26c10.32,0,18.69-8.49,18.69-18.97s-8.37-18.97-18.69-18.97c-10.32,0-18.68,8.49-18.68,18.97    S22.9,54.26,33.22,54.26"></path>
	</g>
	<g>
		<path class="st2" d="M27.59,39.98c-0.25-0.01-0.41-0.18-0.47-0.35c-0.08-0.24-0.07-0.66,0.02-0.85l4.32-7.67    c0.07-0.14,0.25-0.44,0.46-0.44c0.38,0,0.55-0.5-0.1-0.5h-3.46c-0.65,0-0.65,0.49-0.03,0.49c0.25,0,0.35,0.25,0.28,0.4l-0.96,1.73    c-0.12,0.19-0.38,0.21-0.66,0.21l-0.82,0c-0.06,0-0.1,0.05-0.1,0.1c0,0.06,0.05,0.1,0.1,0.1l0.82,0c0.22,0,0.4,0.07,0.27,0.32    l-3.19,5.81c-0.23,0.32-0.69,0.39-0.66-0.22l1.13-8.51c0.04-0.27-0.03-0.45-0.31-0.45l-1.71,0c-0.2,0-0.33,0.1-0.43,0.23    l-0.61,0.77c-0.08,0.08-0.25,0.08-0.44,0.08l-1.44,0c-0.06,0-0.1,0.05-0.1,0.1c0,0.06,0.05,0.1,0.1,0.1h1.17    c0.21,0,0.45,0.05,0.36,0.15l-1.65,2.07c-0.05,0.06-0.21,0.07-0.31,0.07l-0.46,0c-0.06,0-0.1,0.05-0.1,0.1    c0,0.06,0.05,0.1,0.1,0.1l0.39,0c0.12,0,0.12,0.06,0.07,0.11l-1.55,1.94c-0.08,0.08-0.23,0.09-0.39,0.09l-1.37,0    c-0.06,0-0.1,0.05-0.1,0.1c0,0.06,0.05,0.1,0.1,0.1l1.17,0c0.18,0,0.32,0.03,0.22,0.15l-2.2,2.76c-0.41,0.53-2.4,0.79-2.79,0.79    l7.44-13.92c0.07-0.16,0.35-0.4,0.63-0.4h1.58c0.74,0,0.72-0.5,0.08-0.5h-7.94c-0.65,0-0.67,0.5,0.07,0.5h1.47    c0.42,0,0.55,0.25,0.44,0.46l-0.21,0.38c-0.07,0.12-0.17,0.17-0.57,0.17l-2.6,0c-0.06,0-0.1,0.05-0.1,0.1c0,0.06,0.05,0.1,0.1,0.1    l2.59,0c0.14,0,0.35,0.04,0.22,0.29l-0.36,0.68c-0.06,0.1-0.22,0.15-0.4,0.15l-1.18,0c-0.06,0-0.1,0.05-0.1,0.1    c0,0.06,0.05,0.1,0.1,0.1l1.17,0c0.17,0,0.17,0.11,0.07,0.27l-0.84,1.55c-0.07,0.13-0.21,0.15-0.47,0.15l-0.47,0    c-0.06,0-0.1,0.05-0.1,0.1c0,0.06,0.05,0.1,0.1,0.1l0.46,0c0.18,0,0.22,0.1,0.14,0.27l-0.69,1.28c-0.1,0.18-0.25,0.25-0.71,0.25    l-2.6,0c-0.06,0-0.1,0.05-0.1,0.1s0.05,0.1,0.1,0.1l2.59,0c0.29,0,0.4,0.13,0.29,0.34l-1.34,2.52c-0.08,0.11-0.3,0.13-0.67,0.13    l-2.6,0c-0.06,0-0.1,0.05-0.1,0.1c0,0.06,0.05,0.1,0.1,0.1l2.59,0c0.31,0,0.5,0.01,0.41,0.18l-0.77,1.45    c-0.14,0.22-0.54,0.22-0.7,0.22l-0.82,0c-0.06,0-0.1,0.05-0.1,0.1c0,0.06,0.05,0.1,0.1,0.1l0.82,0c0.29,0,0.44,0.05,0.37,0.21    l-1.03,1.94C8.65,39.99,8.25,40,7.94,40l-4.02,0c-0.06,0-0.1,0.05-0.1,0.1c0,0.06,0.05,0.1,0.1,0.1l4.01,0    c0.27,0,0.6,0.03,0.48,0.25l-0.66,1.24c-0.06,0.1-0.29,0.11-0.61,0.11l-0.82,0c-0.06,0-0.1,0.05-0.1,0.1c0,0.06,0.05,0.1,0.1,0.1    h0.82c0.2,0,0.44,0.02,0.36,0.17l-0.41,0.79c-0.13,0.2-0.27,0.37-0.58,0.37H4.48c-0.74,0-0.72,0.5-0.07,0.5l11.83,0.01    c0.35,0,0.36-0.05,0.52-0.3l1.75-3.06l8.97,0C28.13,40.49,27.97,40,27.59,39.98 M20.55,39.07c-0.09,0.51-0.6,0.84-1.23,1.01    l-0.66,0.17l0.54-0.97c0.14-0.27-0.17-0.42-0.51-0.03c-2.29,2.67-3.02,3.95-6.55,3.95l-0.95,0c-0.29,0-0.6-0.11-0.41-0.39    l1.25-2.33l4.75,0c0.65,0,0.48-0.49,0.1-0.5c-0.25-0.01-0.53-0.15-0.72-0.46c-0.05-0.09-0.17-0.42,0.01-0.68l1.82-2.42h3.02    L20.55,39.07z M21.23,36.02h-2.95l3.73-4.92L21.23,36.02z"></path>
	</g>
	<g>
		<path class="st2" d="M41.73,37.23c-1.75,2.12-2.73,2.84-4.51,2.84c-0.6,0-0.92-0.13-0.75-0.43l2.1-4.23h0.8    c0.9,0,0.77,0.75,0.53,1.78c-0.04,0.14,0.06,0.15,0.17,0.03l2-3.51c0.1-0.22-0.15-0.27-0.28-0.1c-1,1.36-2.05,1.26-2.5,1.26h-0.36    l2.25-4.29h0.91c1.14,0.07,1.67,1.04,1.34,3.37h0.47l1.65-3.26c0.13-0.27-0.15-0.53-0.46-0.53l-11.21,0c-0.65,0-0.68,0.5-0.06,0.5    c0.5,0,0.48,0.72,0.03,1.07l-4.76,3.78l0.96,4.46c0.07,0.34,0.29,0.5,0.66,0.5h9.27c0.38,0,0.54-0.16,0.66-0.32l1.68-2.9    C42.56,36.85,42.03,36.88,41.73,37.23 M35.28,35.2l-0.82-0.01c-0.06,0-0.1,0.05-0.1,0.1s0.05,0.1,0.1,0.1l0.83-0.01    c0.28,0,0.54,0.04,0.47,0.16l-2.14,4.09c-0.27,0.49-0.83,0.36-0.92-0.03l-1.06-5.48l3.73-2.89c0.37-0.32,1.08-0.84,1.45-0.83    l0.81,0c0.5,0,0.67,0.23,0.55,0.53l-0.14,0.28c-0.09,0.16-0.39,0.17-0.63,0.17l-0.47,0c-0.06,0-0.1,0.05-0.1,0.1    c0,0.06,0.05,0.1,0.1,0.1l0.46,0c0.2,0,0.45,0,0.36,0.15l-1.73,3.3C35.94,35.17,35.58,35.2,35.28,35.2"></path>
	</g>
	<g>
		<path class="st2" d="M66.1,37.54c-0.05-0.24-0.14-0.09-0.3,0.21c-0.05,0.09-0.2,0.1-0.36,0.1l-0.47,0c-0.06,0-0.1,0.05-0.1,0.1    c0,0.06,0.05,0.1,0.1,0.1l0.47,0c0.18,0,0.18,0.12,0.1,0.3c-0.33,0.7-0.66,1.16-1.11,1.72c-0.07,0.09-0.25,0.16-0.39,0.16l-0.48,0    c-0.06,0-0.1,0.05-0.1,0.1c0,0.06,0.05,0.1,0.1,0.1h0.47c0.23,0,0,0.14-0.04,0.2c-0.83,1.1-1.4,1.6-2.01,2.09    c-0.07,0.06-0.41,0.04-0.65,0.04l-0.47,0c-0.06,0-0.1,0.05-0.1,0.1c0,0.06,0.05,0.1,0.1,0.1l0.46,0c0.35,0,0.09,0.2,0.04,0.25    c-1.29,1.07-3.21,1.42-4.09,1.31c-2.85-0.36-3.44-2.52-3.65-3.39c-0.04-0.18-0.18-0.55-0.23-0.78c-0.09-0.45,1.2-0.58,1.55-0.34    c0.54,0.36,1.8,0.73,2.79,0.73c0.91,0,2.79-0.66,3.33-2.23c0.55-1.61-0.84-3.39-1.46-4.01c-0.79-0.79-1.53-2.04-1.21-2.95    c0.24-0.69,0.63-1.01,1.48-1.01c1.09,0,1.89,0.7,1.89,1.7c0,0.09-0.06,0.19-0.13,0.19l-0.39,0c-0.06,0-0.1,0.05-0.1,0.1    c0,0.06,0.05,0.1,0.1,0.1h0.36c0.1,0,0.17,0.08,0.14,0.2c-0.07,0.33-0.09,0.57-0.17,0.9c-0.04,0.19,0.24,0.33,0.34,0.19l1.72-3.06    c0.12-0.23-0.15-0.29-0.36-0.22c-0.47,0.16-1.23,0.28-1.5,0.08c-0.64-0.46-1.23-0.76-2.12-0.76c-1.52,0-2.59,0.38-3.28,1.63    c-0.05,0.1-0.2,0.1-0.33,0.1l-0.29,0c-0.06,0-0.1,0.05-0.1,0.1c0,0.06,0.05,0.1,0.1,0.1l0.25,0c0.11,0,0.18,0.03,0.13,0.15    c-0.05,0.11-0.09,0.23-0.13,0.36c-0.17,0.54-0.12,1.31,0.15,1.98c0.02,0.04-0.04,0.07-0.14,0.07l-0.47,0c-0.06,0-0.1,0.05-0.1,0.1    s0.05,0.1,0.1,0.1h0.47c0.21,0,0.26,0.02,0.35,0.15c0.24,0.34,0.49,0.59,0.8,0.98c0.1,0.12-0.32,0.16-0.54,0.16l-1.85,0    c-0.06,0-0.1,0.05-0.1,0.1c0,0.06,0.05,0.1,0.1,0.1l1.87,0c0.3,0,0.82,0,0.87,0.06c0.45,0.52,1,1.33,1.09,2.01    c0.03,0.19-0.05,0.28-0.29,0.28l-0.25,0c-0.06,0-0.1,0.05-0.1,0.1c0,0.06,0.05,0.1,0.1,0.1h0.22c0.19,0,0.29,0.03,0.25,0.17    c-0.24,0.78-0.61,1.34-2.09,1.33c-1.55-0.01-1.87-1.53-1.41-3.12c0.09-0.32,0-0.45-0.15-0.2l-1.08,1.7    c-0.03,0.04-0.13,0.14-0.3,0.14h-0.15c-0.06,0-0.1,0.05-0.1,0.1c0,0.06,0.05,0.1,0.11,0.1c0.14,0,0.19,0.07,0.14,0.15l-0.4,0.62    c-0.65-1.49-1.75-3.33-2.33-4l0.01-0.03c1.44-0.09,3.57-1.44,3.91-2.64c0.6-2.09-1.43-2.87-2.54-2.87l-4.87,0    c-0.65,0-0.69,0.49-0.07,0.49c0.34,0,0.63,0.29,0.48,0.59l-1.08,1.94c-0.09,0.16-0.42,0.15-0.86,0.15h-0.47    c-0.06,0-0.1,0.05-0.1,0.1c0,0.06,0.05,0.1,0.1,0.1h0.46c0.31,0,0.65,0.02,0.54,0.24l-1.28,2.3c-0.06,0.11-0.23,0.12-0.66,0.12    l-0.47,0c-0.06,0-0.1,0.05-0.1,0.1c0,0.06,0.05,0.1,0.1,0.1l0.46,0c0.34,0,0.47,0.05,0.37,0.22l-1.7,3.08    c-0.2,0.22-0.45,0.26-0.86,0.26c-0.62,0-0.61,0.49,0.03,0.49h4.17c0.65,0,0.48-0.5,0.1-0.5c-0.22,0-0.46-0.41-0.31-0.66l2.13-4.03    h0.22c0.95,0,1.18,1.55,1.35,3.25c0.01,0.12-0.22,0.13-0.69,0.13l-1.18,0c-0.06,0-0.1,0.05-0.1,0.1c0,0.06,0.05,0.1,0.1,0.1h1.17    c0.31,0,0.74,0,0.76,0.1c0.08,0.74,0.14,1.4,0.28,2c0.04,0.19-0.29,0.16-0.64,0.16l-1.51,0c-0.06,0-0.1,0.05-0.1,0.1    c0,0.06,0.05,0.1,0.1,0.1l1.51,0c0.47,0,0.72,0,0.74,0.1c0.65,2.38,3.43,4.25,6.14,4.15c2.32-0.09,4.28-1.35,5.29-2.16    c1.33-1.07,3.3-3.31,4.09-4.95C65.91,38.19,66.15,37.81,66.1,37.54 M50.49,34.37c-0.33,0.27-0.84,0.57-0.94,0.48    c-0.14-0.14-0.57-0.43-0.8-0.54l1.93-3.53c0.08-0.12,0.17-0.19,0.38-0.19c0.75,0,1,0.82,0.65,1.83    C51.47,33.13,51.07,33.9,50.49,34.37"></path>
	</g>
	<g>
		<g>
			<path class="st3" d="M27.01,27.04c-0.39,0.51-0.91,0.63-1.49,0.63h-0.16l1.03-2.03c0.05-0.09,0.16-0.17,0.29-0.17     c0.13,0,0.11-0.26-0.06-0.26H25c-0.14,0-0.19,0.26-0.06,0.26c0.14,0,0.16,0.15,0.1,0.28l-0.92,1.81     c-0.06,0.1-0.16,0.12-0.28,0.15C23.71,27.75,23.61,28,23.77,28h2.58c0.2,0,0.25-0.07,0.3-0.15l0.52-0.8     C27.24,26.95,27.09,26.94,27.01,27.04"></path>
		</g>
		<g>
			<path class="st3" d="M34.79,25.29c-0.08,0.04-0.26,0.07-0.34,0c-0.21-0.17-0.61-0.3-0.82-0.3c-0.61,0-1.05,0.12-1.31,0.69     c-0.23,0.49,0.01,0.9,0.54,1.15c0.23,0.11,0.54,0.25,0.42,0.53c-0.09,0.2-0.32,0.23-0.54,0.22c-0.29,0-0.72-0.22-0.79-0.63     c-0.02-0.13-0.18-0.1-0.22-0.03l-0.37,0.73c-0.06,0.1,0.09,0.21,0.15,0.14c0.12-0.13,0.39-0.16,0.53-0.08     c0.18,0.12,0.65,0.34,0.93,0.33c0.62,0,1.02-0.16,1.36-0.69c0.31-0.48,0.12-0.96-0.44-1.23c-0.3-0.14-0.55-0.39-0.42-0.66     c0.09-0.18,0.35-0.14,0.48-0.12c0.25,0.04,0.57,0.28,0.61,0.49c0.02,0.09,0.13,0.11,0.18,0.03l0.19-0.45     C34.98,25.33,34.84,25.26,34.79,25.29"></path>
		</g>
		<g>
			<path class="st3" d="M52.7,26.02l0.22-0.41c0.1-0.18-0.06-0.39-0.32-0.39h-3.01c-0.22,0-0.15,0.23-0.06,0.23     c0.19,0,0.25,0.24,0.13,0.43l-0.91,1.67c-0.13,0.16-0.22,0.23-0.42,0.23c-0.16,0-0.21,0.23,0.01,0.23h3.05     c0.12,0,0.18-0.04,0.22-0.11l0.42-0.55c0.1-0.13-0.12-0.13-0.18-0.07c-0.53,0.53-1.09,0.51-1.5,0.51H50l0.42-0.93h0.09     c0.27,0,0.58,0,0.66,0.2c0.02,0.05,0.15,0.09,0.21,0l0.36-0.71c0.06-0.11-0.1-0.13-0.15-0.05c-0.14,0.25-0.76,0.18-0.92,0.18     h-0.09l0.52-1.03h0.58c0.36,0,0.67,0.26,0.77,0.53C52.47,26.05,52.66,26.1,52.7,26.02"></path>
		</g>
		<g>
			<path class="st3" d="M44.99,25.21h-1.07c-0.22,0-0.15,0.23-0.06,0.23c0.23,0,0.44,0.27,0.31,0.52l-0.44,0.81l-0.98-1.43     c-0.07-0.09-0.22-0.13-0.35-0.13h-1.06c-0.22,0-0.17,0.22-0.08,0.22c0.22,0,0.17,0.17,0.11,0.29l-0.84,1.62     c-0.05,0.13-0.28,0.15-0.35-0.02l-0.65-2.12c-0.03-0.08-0.41-0.08-0.5,0l-1.63,1.34l-0.84,0c-0.17,0-0.23,0.07-0.23,0.16     s0.06,0.17,0.24,0.17l0.44,0l-0.44,0.36c-0.25,0.18-0.5,0.43-0.66,0.43h-0.1c-0.16,0-0.25,0.03-0.25,0.15     c0,0.13,0.07,0.17,0.22,0.17h1.32c0.25,0,0.2-0.32,0.08-0.32c-0.14,0-0.36-0.17-0.15-0.42l0.4-0.38h0.79     c0.47,0,0.8,0.54,0.52,0.71l-0.22,0.12c-0.1,0.05-0.15,0.29,0,0.29h2.57c0.19,0,0.15-0.25,0.06-0.25c-0.26,0-0.14-0.38-0.09-0.48     l0.68-1.28l0.95,1.84c0.06,0.11,0.12,0.17,0.23,0.17h0.36c0.12,0,0.15-0.07,0.21-0.16l1.08-1.95c0.17-0.35,0.31-0.45,0.53-0.45     C45.14,25.44,45.21,25.21,44.99,25.21 M37.8,26.55l1-0.82l0,0.82H37.8z"></path>
		</g>
		<g>
			<path class="st3" d="M29.76,25.09c-0.9,0-1.84,0.45-2.02,1.39c-0.16,0.83,0.41,1.68,1.42,1.68c0.96,0,1.85-0.63,2.03-1.54     C31.36,25.71,30.68,25.09,29.76,25.09 M30.02,26.83c-0.29,0.57-0.77,0.91-1.07,0.76c-0.31-0.15-0.32-0.74-0.03-1.31     c0.29-0.57,0.77-0.91,1.07-0.76C30.29,25.67,30.3,26.26,30.02,26.83"></path>
		</g>
		<g>
			<path class="st3" d="M48.05,26.48h-1.16c-0.22,0-0.15,0.23-0.06,0.23c0.09,0,0.18,0.05,0.18,0.19c0,0.47-0.2,0.65-0.6,0.65     c-0.44,0-0.6-0.54-0.3-1.19c0.19-0.42,0.69-0.81,1.29-0.81c0.37,0,0.67,0.08,0.72,0.42c0.01,0.08,0.14,0.08,0.18,0l0.28-0.49     c0.03-0.05-0.02-0.12-0.1-0.12c-0.07,0-0.23,0.09-0.33,0.01c-0.23-0.17-0.74-0.34-1.12-0.34c-0.62,0-1.49,0.14-2.08,1.16     c-0.53,0.92,0.24,1.9,0.96,1.9c0.4,0,0.86-0.29,1.13-0.41l0.3,0.2c0.04,0.05,0.14,0.12,0.23,0.12h0.11c0.1,0,0.14-0.14,0.18-0.23     l0.46-1.1C48.33,26.56,48.3,26.48,48.05,26.48"></path>
		</g>
		<g>
			<path class="st3" d="M63.96,25.29c-0.08,0.04-0.26,0.07-0.34,0c-0.21-0.17-0.61-0.3-0.82-0.3c-0.61,0-1.05,0.12-1.31,0.69     c-0.23,0.49,0.01,0.9,0.54,1.15c0.23,0.11,0.54,0.25,0.42,0.53c-0.09,0.2-0.33,0.23-0.54,0.22c-0.29,0-0.72-0.22-0.79-0.63     c-0.02-0.13-0.18-0.1-0.22-0.03l-0.37,0.73c-0.06,0.1,0.09,0.21,0.15,0.14c0.12-0.13,0.39-0.16,0.53-0.08     c0.18,0.12,0.65,0.34,0.93,0.33c0.62,0,1.02-0.16,1.36-0.69c0.31-0.48,0.12-0.96-0.44-1.23c-0.3-0.14-0.55-0.39-0.42-0.66     c0.09-0.18,0.35-0.14,0.48-0.12c0.25,0.04,0.57,0.28,0.61,0.49c0.02,0.09,0.13,0.11,0.18,0.03l0.19-0.45     C64.15,25.33,64.01,25.26,63.96,25.29"></path>
		</g>
		<g>
			<path class="st3" d="M55.88,27.04c-0.39,0.51-0.91,0.63-1.49,0.63h-0.16l1.03-2.03c0.05-0.09,0.16-0.17,0.29-0.17     c0.13,0,0.11-0.26-0.06-0.26h-1.62c-0.14,0-0.19,0.26-0.06,0.26c0.14,0,0.16,0.15,0.1,0.28l-0.92,1.81     c-0.06,0.1-0.16,0.12-0.28,0.15C52.58,27.75,52.48,28,52.64,28h2.58c0.2,0,0.25-0.07,0.3-0.15l0.52-0.8     C56.11,26.95,55.96,26.94,55.88,27.04"></path>
		</g>
		<g>
			<path class="st3" d="M59.78,25.45c0.36,0,0.67,0.26,0.77,0.53c0.02,0.07,0.22,0.12,0.26,0.04l0.22-0.41     c0.1-0.18-0.06-0.39-0.32-0.39h-3.02c-0.22,0-0.15,0.23-0.06,0.23c0.19,0,0.25,0.24,0.13,0.43l-0.91,1.67     c-0.14,0.16-0.22,0.23-0.42,0.23c-0.15,0-0.21,0.23,0.01,0.23h3.05c0.12,0,0.18-0.04,0.22-0.11l0.42-0.55     c0.1-0.13-0.12-0.13-0.18-0.07c-0.53,0.53-1.09,0.51-1.5,0.51H58.1l0.42-0.93h0.09c0.27,0,0.58,0,0.66,0.2     c0.02,0.05,0.15,0.09,0.21,0l0.36-0.71c0.06-0.11-0.1-0.12-0.15-0.05c-0.14,0.25-0.76,0.18-0.92,0.18h-0.09l0.52-1.03H59.78z"></path>
		</g>
	</g>
	<g>
		<g>
			<path class="st2" d="M27.01,27.04c-0.39,0.51-0.91,0.63-1.49,0.63h-0.16l1.03-2.03c0.05-0.09,0.16-0.17,0.29-0.17     c0.13,0,0.11-0.26-0.06-0.26H25c-0.14,0-0.19,0.26-0.06,0.26c0.14,0,0.16,0.15,0.1,0.28l-0.92,1.81     c-0.06,0.1-0.16,0.12-0.28,0.15C23.71,27.75,23.61,28,23.77,28h2.58c0.2,0,0.25-0.07,0.3-0.15l0.52-0.8     C27.24,26.95,27.09,26.94,27.01,27.04"></path>
		</g>
		<g>
			<path class="st2" d="M34.79,25.29c-0.08,0.04-0.26,0.07-0.34,0c-0.21-0.17-0.61-0.3-0.82-0.3c-0.61,0-1.05,0.12-1.31,0.69     c-0.23,0.49,0.01,0.9,0.54,1.15c0.23,0.11,0.54,0.25,0.42,0.53c-0.09,0.2-0.32,0.23-0.54,0.22c-0.29,0-0.72-0.22-0.79-0.63     c-0.02-0.13-0.18-0.1-0.22-0.03l-0.37,0.73c-0.06,0.1,0.09,0.21,0.15,0.14c0.12-0.13,0.39-0.16,0.53-0.08     c0.18,0.12,0.65,0.34,0.93,0.33c0.62,0,1.02-0.16,1.36-0.69c0.31-0.48,0.12-0.96-0.44-1.23c-0.3-0.14-0.55-0.39-0.42-0.66     c0.09-0.18,0.35-0.14,0.48-0.12c0.25,0.04,0.57,0.28,0.61,0.49c0.02,0.09,0.13,0.11,0.18,0.03l0.19-0.45     C34.98,25.33,34.84,25.26,34.79,25.29"></path>
		</g>
		<g>
			<path class="st2" d="M52.7,26.02l0.22-0.41c0.1-0.18-0.06-0.39-0.32-0.39h-3.01c-0.22,0-0.15,0.23-0.06,0.23     c0.19,0,0.25,0.24,0.13,0.43l-0.91,1.67c-0.13,0.16-0.22,0.23-0.42,0.23c-0.16,0-0.21,0.23,0.01,0.23h3.05     c0.12,0,0.18-0.04,0.22-0.11l0.42-0.55c0.1-0.13-0.12-0.13-0.18-0.07c-0.53,0.53-1.09,0.51-1.5,0.51H50l0.42-0.93h0.09     c0.27,0,0.58,0,0.66,0.2c0.02,0.05,0.15,0.09,0.21,0l0.36-0.71c0.06-0.11-0.1-0.13-0.15-0.05c-0.14,0.25-0.76,0.18-0.92,0.18     h-0.09l0.52-1.03h0.58c0.36,0,0.67,0.26,0.77,0.53C52.47,26.05,52.66,26.1,52.7,26.02"></path>
		</g>
		<g>
			<path class="st2" d="M44.99,25.21h-1.07c-0.22,0-0.15,0.23-0.06,0.23c0.23,0,0.44,0.27,0.31,0.52l-0.44,0.81l-0.98-1.43     c-0.07-0.09-0.22-0.13-0.35-0.13h-1.06c-0.22,0-0.17,0.22-0.08,0.22c0.22,0,0.17,0.17,0.11,0.29l-0.84,1.62     c-0.05,0.13-0.28,0.15-0.35-0.02l-0.65-2.12c-0.03-0.08-0.41-0.08-0.5,0l-1.63,1.34l-0.84,0c-0.17,0-0.23,0.07-0.23,0.16     s0.06,0.17,0.24,0.17l0.44,0l-0.44,0.36c-0.25,0.18-0.5,0.43-0.66,0.43h-0.1c-0.16,0-0.25,0.03-0.25,0.15     c0,0.13,0.07,0.17,0.22,0.17h1.32c0.25,0,0.2-0.32,0.08-0.32c-0.14,0-0.36-0.17-0.15-0.42l0.4-0.38h0.79     c0.47,0,0.8,0.54,0.52,0.71l-0.22,0.12c-0.1,0.05-0.15,0.29,0,0.29h2.57c0.19,0,0.15-0.25,0.06-0.25c-0.26,0-0.14-0.38-0.09-0.48     l0.68-1.28l0.95,1.84c0.06,0.11,0.12,0.17,0.23,0.17h0.36c0.12,0,0.15-0.07,0.21-0.16l1.08-1.95c0.17-0.35,0.31-0.45,0.53-0.45     C45.14,25.44,45.21,25.21,44.99,25.21 M37.8,26.55l1-0.82l0,0.82H37.8z"></path>
		</g>
		<g>
			<path class="st2" d="M29.76,25.09c-0.9,0-1.84,0.45-2.02,1.39c-0.16,0.83,0.41,1.68,1.42,1.68c0.96,0,1.85-0.63,2.03-1.54     C31.36,25.71,30.68,25.09,29.76,25.09 M30.02,26.83c-0.29,0.57-0.77,0.91-1.07,0.76c-0.31-0.15-0.32-0.74-0.03-1.31     c0.29-0.57,0.77-0.91,1.07-0.76C30.29,25.67,30.3,26.26,30.02,26.83"></path>
		</g>
		<g>
			<path class="st2" d="M48.05,26.48h-1.16c-0.22,0-0.15,0.23-0.06,0.23c0.09,0,0.18,0.05,0.18,0.19c0,0.47-0.2,0.65-0.6,0.65     c-0.44,0-0.6-0.54-0.3-1.19c0.19-0.42,0.69-0.81,1.29-0.81c0.37,0,0.67,0.08,0.72,0.42c0.01,0.08,0.14,0.08,0.18,0l0.28-0.49     c0.03-0.05-0.02-0.12-0.1-0.12c-0.07,0-0.23,0.09-0.33,0.01c-0.23-0.17-0.74-0.34-1.12-0.34c-0.62,0-1.49,0.14-2.08,1.16     c-0.53,0.92,0.24,1.9,0.96,1.9c0.4,0,0.86-0.29,1.13-0.41l0.3,0.2c0.04,0.05,0.14,0.12,0.23,0.12h0.11c0.1,0,0.14-0.14,0.18-0.23     l0.46-1.1C48.33,26.56,48.3,26.48,48.05,26.48"></path>
		</g>
		<g>
			<path class="st2" d="M63.96,25.29c-0.08,0.04-0.26,0.07-0.34,0c-0.21-0.17-0.61-0.3-0.82-0.3c-0.61,0-1.05,0.12-1.31,0.69     c-0.23,0.49,0.01,0.9,0.54,1.15c0.23,0.11,0.54,0.25,0.42,0.53c-0.09,0.2-0.33,0.23-0.54,0.22c-0.29,0-0.72-0.22-0.79-0.63     c-0.02-0.13-0.18-0.1-0.22-0.03l-0.37,0.73c-0.06,0.1,0.09,0.21,0.15,0.14c0.12-0.13,0.39-0.16,0.53-0.08     c0.18,0.12,0.65,0.34,0.93,0.33c0.62,0,1.02-0.16,1.36-0.69c0.31-0.48,0.12-0.96-0.44-1.23c-0.3-0.14-0.55-0.39-0.42-0.66     c0.09-0.18,0.35-0.14,0.48-0.12c0.25,0.04,0.57,0.28,0.61,0.49c0.02,0.09,0.13,0.11,0.18,0.03l0.19-0.45     C64.15,25.33,64.01,25.26,63.96,25.29"></path>
		</g>
		<g>
			<path class="st2" d="M55.88,27.04c-0.39,0.51-0.91,0.63-1.49,0.63h-0.16l1.03-2.03c0.05-0.09,0.16-0.17,0.29-0.17     c0.13,0,0.11-0.26-0.06-0.26h-1.62c-0.14,0-0.19,0.26-0.06,0.26c0.14,0,0.16,0.15,0.1,0.28l-0.92,1.81     c-0.06,0.1-0.16,0.12-0.28,0.15C52.58,27.75,52.48,28,52.64,28h2.58c0.2,0,0.25-0.07,0.3-0.15l0.52-0.8     C56.11,26.95,55.96,26.94,55.88,27.04"></path>
		</g>
		<g>
			<path class="st2" d="M59.78,25.45c0.36,0,0.67,0.26,0.77,0.53c0.02,0.07,0.22,0.12,0.26,0.04l0.22-0.41     c0.1-0.18-0.06-0.39-0.32-0.39h-3.02c-0.22,0-0.15,0.23-0.06,0.23c0.19,0,0.25,0.24,0.13,0.43l-0.91,1.67     c-0.14,0.16-0.22,0.23-0.42,0.23c-0.15,0-0.21,0.23,0.01,0.23h3.05c0.12,0,0.18-0.04,0.22-0.11l0.42-0.55     c0.1-0.13-0.12-0.13-0.18-0.07c-0.53,0.53-1.09,0.51-1.5,0.51H58.1l0.42-0.93h0.09c0.27,0,0.58,0,0.66,0.2     c0.02,0.05,0.15,0.09,0.21,0l0.36-0.71c0.06-0.11-0.1-0.12-0.15-0.05c-0.14,0.25-0.76,0.18-0.92,0.18h-0.09l0.52-1.03H59.78z"></path>
		</g>
	</g>
	<g>
		<g>
			<path d="M47.9,23.01c-0.23-0.27-0.55-0.83-2.85-2.84c-3.38-2.95-7.86-4.29-12.07-4.29c-3.1,0-5.82,0.7-8.82,2.35     c-3.83,2.11-5.42,4.53-5.81,5.03c-0.29,0.36-0.33,0.57-0.14,0.68c0.13,0.08,0.39-0.2,0.63-0.52c1.14-1.51,2.64-3,4.21-3.87     c0.49,0.07,1.18,0.75,1.44,1.12c-1.01,0.55-2.68,1.82-3.32,2.31c-0.55,0.42-0.74,0.66-0.59,0.83c0.12,0.14,0.54-0.14,0.89-0.43     c0.61-0.5,2.41-1.77,3.3-2.25c0.61,0.71,0.41,2.02,0.2,2.31c-0.11,0.15-0.13,0.32,0,0.39c0.13,0.07,0.26-0.11,0.44-0.36     c0.41-0.6,0.25-2.04-0.11-2.56c1.09-0.67,2.65-1.13,3.59-1.34c0.08,0.15,1.23,3.5,1.44,4.11c0.12,0.33,0.24,0.73,0.48,0.66     c0.16-0.05,0.05-0.41-0.08-0.78c-0.17-0.45-1.03-3.26-1.3-4.1c0.31-0.17,2.19-0.55,2.66-0.53c-0.23,1.22,0.63,1.73,1.61,2.37     c0.52,0.34,3.83,2.24,4.52,2.67c0.39,0.24,0.7,0.4,0.78,0.28c0.1-0.13-0.17-0.41-0.53-0.62c-0.29-0.17-3.37-1.95-4.65-2.77     c-0.92-0.58-1.41-1.2-1.19-2.02c0.3-0.09,1.23-0.1,2.19-0.09c6.56,0.05,11.82,3.81,12.4,4.42c0.3,0.31,0.71,0.57,0.87,0.44     C48.22,23.51,48.04,23.17,47.9,23.01 M25.04,20.42c-0.18-0.3-1.01-1.06-1.46-1.21c1.05-0.78,3.49-1.9,4.42-2.09     c0.16,0.27,0.59,1.4,0.73,1.88C27.91,19.18,25.73,19.96,25.04,20.42 M32.2,18.31c-0.86,0.05-2.41,0.39-2.96,0.55     c-0.14-0.37-0.53-1.53-0.66-1.9c1.58-0.45,3.4-0.6,4.81-0.48C33.01,16.78,32.35,17.97,32.2,18.31 M36.46,18.26     c-1.42-0.1-2.58-0.14-3.6-0.04c0.29-0.74,0.88-1.43,1.34-1.74c0.97,0.04,1.97,0.18,2.76,0.34c2.54,0.5,6.48,2.05,8.18,4.33     C42.88,19.63,39.11,18.44,36.46,18.26"></path>
		</g>
		<g>
			<path d="M49.32,45.46c0.24-0.45,0.44-0.7,0.23-0.82c-0.19-0.11-0.37,0.31-0.61,0.71c-0.77,1.33-1.6,2.43-3.49,4.15     c-2.09,1.91-4.5,3.02-5.34,3.3c-0.71-2-3.43-10.54-3.5-10.78c-0.11-0.36-0.2-0.47-0.32-0.43c-0.14,0.05-0.05,0.25,0.02,0.57     c0.07,0.32,3.31,10.42,3.41,10.77c-0.64,0.32-3.25,1.05-5.07,1.11c-1.62,0.05-3.53,0-4.49-0.22c-1.13-0.91-3.69-4.53-4.67-6.46     c-1.15-2.27-1.91-4.36-2.1-5.25c-0.09-0.42-0.21-0.73-0.43-0.69c-0.23,0.04-0.1,0.38,0.04,0.83c0.35,1.17,0.91,2.83,2.1,5.19     c1.27,2.5,3.53,5.43,4.19,6.23c-2.07-0.43-4.58-1.4-6.96-3.18c-2.06-1.53-3.82-3.48-4.71-4.91c-0.15-0.24-0.33-0.59-0.55-0.44     c-0.1,0.07,0.02,0.34,0.18,0.62c1.29,2.32,4.44,5.6,8.47,7.4c4.7,2.1,9.82,1.99,14.4,0.21C44.12,51.82,47.6,48.63,49.32,45.46"></path>
		</g>
	</g>
	<g>
		<g>
			<path d="M47.9,23.01c-0.23-0.27-0.55-0.83-2.85-2.84c-3.38-2.95-7.86-4.29-12.07-4.29c-3.1,0-5.82,0.7-8.82,2.35     c-3.83,2.11-5.42,4.53-5.81,5.03c-0.29,0.36-0.33,0.57-0.14,0.68c0.13,0.08,0.39-0.2,0.63-0.52c1.14-1.51,2.64-3,4.21-3.87     c0.49,0.07,1.18,0.75,1.44,1.12c-1.01,0.55-2.68,1.82-3.32,2.31c-0.55,0.42-0.74,0.66-0.59,0.83c0.12,0.14,0.54-0.14,0.89-0.43     c0.61-0.5,2.41-1.77,3.3-2.25c0.61,0.71,0.41,2.02,0.2,2.31c-0.11,0.15-0.13,0.32,0,0.39c0.13,0.07,0.26-0.11,0.44-0.36     c0.41-0.6,0.25-2.04-0.11-2.56c1.09-0.67,2.65-1.13,3.59-1.34c0.08,0.15,1.23,3.5,1.44,4.11c0.12,0.33,0.24,0.73,0.48,0.66     c0.16-0.05,0.05-0.41-0.08-0.78c-0.17-0.45-1.03-3.26-1.3-4.1c0.31-0.17,2.19-0.55,2.66-0.53c-0.23,1.22,0.63,1.73,1.61,2.37     c0.52,0.34,3.83,2.24,4.52,2.67c0.39,0.24,0.7,0.4,0.78,0.28c0.1-0.13-0.17-0.41-0.53-0.62c-0.29-0.17-3.37-1.95-4.65-2.77     c-0.92-0.58-1.41-1.2-1.19-2.02c0.3-0.09,1.23-0.1,2.19-0.09c6.56,0.05,11.82,3.81,12.4,4.42c0.3,0.31,0.71,0.57,0.87,0.44     C48.22,23.51,48.04,23.17,47.9,23.01 M25.04,20.42c-0.18-0.3-1.01-1.06-1.46-1.21c1.05-0.78,3.49-1.9,4.42-2.09     c0.16,0.27,0.59,1.4,0.73,1.88C27.91,19.18,25.73,19.96,25.04,20.42 M32.2,18.31c-0.86,0.05-2.41,0.39-2.96,0.55     c-0.14-0.37-0.53-1.53-0.66-1.9c1.58-0.45,3.4-0.6,4.81-0.48C33.01,16.78,32.35,17.97,32.2,18.31 M36.46,18.26     c-1.42-0.1-2.58-0.14-3.6-0.04c0.29-0.74,0.88-1.43,1.34-1.74c0.97,0.04,1.97,0.18,2.76,0.34c2.54,0.5,6.48,2.05,8.18,4.33     C42.88,19.63,39.11,18.44,36.46,18.26"></path>
		</g>
		<g>
			<path d="M49.32,45.46c0.24-0.45,0.44-0.7,0.23-0.82c-0.19-0.11-0.37,0.31-0.61,0.71c-0.77,1.33-1.6,2.43-3.49,4.15     c-2.09,1.91-4.5,3.02-5.34,3.3c-0.71-2-3.43-10.54-3.5-10.78c-0.11-0.36-0.2-0.47-0.32-0.43c-0.14,0.05-0.05,0.25,0.02,0.57     c0.07,0.32,3.31,10.42,3.41,10.77c-0.64,0.32-3.25,1.05-5.07,1.11c-1.62,0.05-3.53,0-4.49-0.22c-1.13-0.91-3.69-4.53-4.67-6.46     c-1.15-2.27-1.91-4.36-2.1-5.25c-0.09-0.42-0.21-0.73-0.43-0.69c-0.23,0.04-0.1,0.38,0.04,0.83c0.35,1.17,0.91,2.83,2.1,5.19     c1.27,2.5,3.53,5.43,4.19,6.23c-2.07-0.43-4.58-1.4-6.96-3.18c-2.06-1.53-3.82-3.48-4.71-4.91c-0.15-0.24-0.33-0.59-0.55-0.44     c-0.1,0.07,0.02,0.34,0.18,0.62c1.29,2.32,4.44,5.6,8.47,7.4c4.7,2.1,9.82,1.99,14.4,0.21C44.12,51.82,47.6,48.63,49.32,45.46"></path>
		</g>
	</g>
</g>
</svg>
