<svg width="465" height="465" viewBox="0 0 465 465" fill="none" xmlns="http://www.w3.org/2000/svg">
<path d="M166.25 6.0671e-07C161.896 -0.001182 157.719 1.72654 154.638 4.80346C151.557 7.88039 149.824 12.0547 149.819 16.4091V131.398H453.624L315.272 0.0356145L166.25 6.0671e-07ZM464.753 166.184C464.755 164.029 464.331 161.895 463.506 159.904C462.681 157.913 461.471 156.105 459.946 154.583C458.421 153.061 456.61 151.855 454.617 151.034C452.625 150.214 450.49 149.795 448.335 149.801H333.355V453.597L464.699 315.21L464.753 166.184ZM298.516 464.624C302.863 464.612 307.027 462.877 310.096 459.799C313.166 456.722 314.89 452.552 314.89 448.206V333.231H11.0982L149.427 464.593L298.516 464.624ZM6.03927e-07 298.458C-0.000584086 300.614 0.423387 302.748 1.24771 304.74C2.07202 306.731 3.28056 308.541 4.80429 310.066C6.32802 311.59 8.13707 312.8 10.1282 313.625C12.1194 314.45 14.2537 314.876 16.4091 314.876H131.398V11.0581L0.0177978 149.409L6.03927e-07 298.458Z" fill="black"/>
</svg>
